<svg width="900" height="246" viewBox="0 0 900 246" fill="none" xmlns="http://www.w3.org/2000/svg">
<g clip-path="url(#clip0)">
<rect width="900" height="246" fill="white"/>
<path fill-rule="evenodd" clip-rule="evenodd" d="M900 0V139.5C900 139.5 775.422 112.05 693.81 108.5C603.853 104.587 466.975 125.399 451.689 127.78C436.839 135.622 312.541 200.436 219.4 222.5C136.075 242.239 0 246.5 0 246.5V107C0 107 124.578 134.45 206.19 138C296.147 141.913 433.025 121.101 448.311 118.72C463.161 110.878 587.459 46.0637 680.6 24C763.925 4.26145 900 0 900 0Z" fill="url(#paint0_linear)"/>
<path fill-rule="evenodd" clip-rule="evenodd" d="M900 0V139.5C900 139.5 775.422 112.05 693.81 108.5C603.853 104.587 466.975 125.399 451.689 127.78C436.839 135.622 312.541 200.436 219.4 222.5C136.075 242.239 0 246.5 0 246.5V107C0 107 124.578 134.45 206.19 138C296.147 141.913 433.025 121.101 448.311 118.72C463.161 110.878 587.459 46.0637 680.6 24C763.925 4.26145 900 0 900 0Z" fill="url(#paint1_radial)"/>
</g>
<defs>
<linearGradient id="paint0_linear" x1="835" y1="59.5" x2="81.0284" y2="249.954" gradientUnits="userSpaceOnUse">
<stop offset="0.0574955" stop-color="#FFCF48"/>
<stop offset="0.498144" stop-color="#ED533B"/>
<stop offset="0.906923" stop-color="#3142AB"/>
</linearGradient>
<radialGradient id="paint1_radial" cx="0" cy="0" r="1" gradientUnits="userSpaceOnUse" gradientTransform="translate(440.523 129) rotate(157.908) scale(404.147 1053.96)">
<stop offset="0.046875" stop-color="white" stop-opacity="0.39"/>
<stop offset="1" stop-color="white" stop-opacity="0"/>
</radialGradient>
<clipPath id="clip0">
<rect width="900" height="246" fill="white"/>
</clipPath>
</defs>
</svg>
