<svg width="900" height="302" viewBox="0 0 900 302" fill="none" xmlns="http://www.w3.org/2000/svg">
<g clip-path="url(#clip0)">
<rect width="900" height="302" fill="white"/>
<path d="M868 -0.5H574C574 -0.5 553.914 57.7035 530 88C490.759 137.714 392.5 174 392.5 174C392.5 174 263.537 197.649 180.5 193.5C109.452 189.95 1 162.5 1 162.5V302C1 302 119.461 297.739 192 278C278.364 254.5 395.5 182.5 395.5 182.5C395.5 182.5 561.964 158.861 658 120C745.648 84.5334 868 -0.5 868 -0.5Z" fill="url(#paint0_linear)"/>
<path d="M868 -0.5H574C574 -0.5 553.914 57.7035 530 88C490.759 137.714 392.5 174 392.5 174C392.5 174 263.537 197.649 180.5 193.5C109.452 189.95 1 162.5 1 162.5V302C1 302 119.461 297.739 192 278C278.364 254.5 395.5 182.5 395.5 182.5C395.5 182.5 561.964 158.861 658 120C745.648 84.5334 868 -0.5 868 -0.5Z" fill="url(#paint1_radial)"/>
</g>
<defs>
<linearGradient id="paint0_linear" x1="692.5" y1="34.5" x2="90.0001" y2="237.5" gradientUnits="userSpaceOnUse">
<stop offset="0.0574955" stop-color="#FFCF48"/>
<stop offset="0.507914" stop-color="#ED533B"/>
<stop offset="0.828286" stop-color="#3142AB"/>
</linearGradient>
<radialGradient id="paint1_radial" cx="0" cy="0" r="1" gradientUnits="userSpaceOnUse" gradientTransform="translate(401 173) rotate(-24.9976) scale(359.694 1030.93)">
<stop offset="0.046875" stop-color="white" stop-opacity="0.39"/>
<stop offset="1" stop-color="white" stop-opacity="0"/>
</radialGradient>
<clipPath id="clip0">
<rect width="900" height="302" fill="white"/>
</clipPath>
</defs>
</svg>
