<svg width="868" height="326" viewBox="0 0 868 326" fill="none" xmlns="http://www.w3.org/2000/svg">
<path d="M-0.5 179.5V325.5C-0.5 325.5 136.333 305.818 221 281C337.18 246.945 506 161 506 161C506 161 345.618 195.987 241 199C146.421 201.724 -0.5 179.5 -0.5 179.5Z" fill="url(#paint0_linear)"/>
<path d="M-0.5 179.5V325.5C-0.5 325.5 136.333 305.818 221 281C337.18 246.945 506 161 506 161C506 161 345.618 195.987 241 199C146.421 201.724 -0.5 179.5 -0.5 179.5Z" fill="url(#paint1_linear)"/>
<path d="M868 -0.5H636C636 -0.5 579.711 68.3925 534.5 102C461.221 156.472 376 185 376 185C376 185 495.844 170.578 603 133.5C712.592 95.5786 868 -0.5 868 -0.5Z" fill="url(#paint2_linear)"/>
<path d="M868 -0.5H636C636 -0.5 579.711 68.3925 534.5 102C461.221 156.472 376 185 376 185C376 185 495.844 170.578 603 133.5C712.592 95.5786 868 -0.5 868 -0.5Z" fill="url(#paint3_linear)"/>
<defs>
<linearGradient id="paint0_linear" x1="543" y1="159" x2="-538.5" y2="501" gradientUnits="userSpaceOnUse">
<stop stop-color="#FFCF48"/>
<stop offset="0.385417" stop-color="#ED533B"/>
<stop offset="0.780713" stop-color="#3142AB"/>
</linearGradient>
<linearGradient id="paint1_linear" x1="691" y1="94" x2="12" y2="305.5" gradientUnits="userSpaceOnUse">
<stop stop-color="white"/>
<stop offset="1" stop-color="white" stop-opacity="0"/>
</linearGradient>
<linearGradient id="paint2_linear" x1="591" y1="193.5" x2="1112.5" y2="-127.5" gradientUnits="userSpaceOnUse">
<stop stop-color="#FFCF48"/>
<stop offset="0.385417" stop-color="#ED533B"/>
<stop offset="0.780713" stop-color="#3142AB"/>
</linearGradient>
<linearGradient id="paint3_linear" x1="244.5" y1="239.5" x2="673.5" y2="67" gradientUnits="userSpaceOnUse">
<stop stop-color="white"/>
<stop offset="1" stop-color="white" stop-opacity="0"/>
</linearGradient>
</defs>
</svg>
